<svg xmlns="http://www.w3.org/2000/svg" viewBox="0 0 352.97 47.41"><defs><style>.cls-1{fill:#ec5820;}</style></defs><g id="Calque_2" data-name="Calque 2"><g id="Calque_2-2" data-name="Calque 2"><polygon class="cls-1" points="0 47 9.5 47 9.5 21.25 19.65 38.92 25.41 38.99 35.52 21.49 35.52 47 45.02 47 45.02 1.54 36.44 1.54 22.51 26.2 8.47 1.54 0 1.54 0 47"/><polyline class="cls-1" points="133.02 14.57 125.71 33.42 118.44 14.57 108.91 14.57 121.98 47 129.38 47 142.51 14.57"/><polygon class="cls-1" points="155.54 16.48 164.39 13.53 164.39 47 155.54 47 155.54 16.48"/><path class="cls-1" d="M211.53,35a37,37,0,0,0,0-4.61A19.89,19.89,0,0,0,210.43,25a15.79,15.79,0,0,0-18-9.94,16.53,16.53,0,0,0-13.2,12.83A16.56,16.56,0,0,0,183,41.63a16.82,16.82,0,0,0,12.84,5.52c4,0,9-1.27,11.26-4.92-.91-1.13-6.09-5.95-6.09-5.95a11.25,11.25,0,0,1-1.47,1.15A7.63,7.63,0,0,1,194,38.94,7.82,7.82,0,0,1,188.46,35C189.13,35.06,211.23,35,211.53,35Zm-16.32-12.4c4.47-.09,6.69,4.32,6.69,4.32H188.51S190.73,22.66,195.21,22.57Z"/><polygon class="cls-1" points="226.28 1.45 226.28 47.04 235.54 47.04 235.54 29.51 256.39 29.47 256.39 20.52 235.46 20.57 235.52 10.49 256.39 10.63 256.39 1.45 226.28 1.45"/><polygon class="cls-1" points="271.62 3.2 280.61 0 280.61 47.04 271.62 47.04 271.62 3.2"/><polygon class="cls-1" points="297.98 16.48 306.9 13.49 306.9 47.04 297.98 47.04 297.98 16.48"/><polygon class="cls-1" points="319.18 14.53 329.72 14.53 336.35 23.54 342.43 14.53 352.97 14.53 341.43 30.79 352.97 47.04 342.7 47.04 336.07 38.05 329.72 47.04 319.18 47.04 330.9 30.79 319.18 14.53"/><path class="cls-1" d="M98.94,46.16H83.21a16.61,16.61,0,1,0-6.31,1.25c.34,0,.68,0,1,0h21Z"/><path d="M76.9,44.4A13.61,13.61,0,1,1,90.51,30.79,13.63,13.63,0,0,1,76.9,44.4Zm0-27A13.36,13.36,0,1,0,90.26,30.79,13.38,13.38,0,0,0,76.9,17.43Z"/><path d="M69.15,34.08a3.29,3.29,0,1,1,3.28-3.29A3.29,3.29,0,0,1,69.15,34.08Zm0-6.33a3,3,0,1,0,3,3A3,3,0,0,0,69.15,27.75Z"/><path d="M76.9,26.31A3.29,3.29,0,1,1,80.18,23,3.29,3.29,0,0,1,76.9,26.31Zm0-6.33a3,3,0,1,0,3,3A3,3,0,0,0,76.9,20Z"/><path d="M76.9,41.88a3.29,3.29,0,1,1,3.28-3.28A3.28,3.28,0,0,1,76.9,41.88Zm0-6.32a3,3,0,1,0,3,3A3,3,0,0,0,76.9,35.56Z"/><path d="M84.69,34.08A3.29,3.29,0,1,1,88,30.79,3.29,3.29,0,0,1,84.69,34.08Zm0-6.33a3,3,0,1,0,3,3A3,3,0,0,0,84.69,27.75Z"/><path d="M76.9,32.41a1.62,1.62,0,1,1,1.62-1.62A1.62,1.62,0,0,1,76.9,32.41Zm0-3a1.37,1.37,0,1,0,1.37,1.37A1.37,1.37,0,0,0,76.9,29.42Z"/></g></g></svg>